<svg xmlns="http://www.w3.org/2000/svg" viewBox="0 0 421.62 153"><defs><style>.a{fill:#0d6efd;}.b{fill:#212529;}</style></defs><path class="a" d="M136.48,22.15l-2.72-11.07L122.53,13a57.71,57.71,0,0,1-9.81.82c-19.75,0-37.1-9.21-37.24-9.28L69.64,1.42,63.81,4.55c-.17.09-17.52,9.3-37.28,9.3a57.68,57.68,0,0,1-9.8-.82L5.5,11.08,2.77,22.15A137.65,137.65,0,0,0,1.68,73.26C8,110.37,29.87,137.74,64.9,152.43l4.73,2,4.72-2c35-14.69,56.9-42.06,63.23-79.17A137.53,137.53,0,0,0,136.48,22.15Zm-66.85,119c-75.77-31.77-55-116.09-55-116.09,28.1,4.89,55-9.77,55-9.77s26.88,14.66,55,9.77C124.62,25.07,145.39,109.39,69.63,141.16Z" transform="translate(0.18 -1.42)"/><rect class="a" x="88.24" y="44.19" width="10.11" height="20.74" transform="translate(-11.07 80.54) rotate(-45)"/><rect class="a" x="50.91" y="66.1" width="40.96" height="20.74" transform="translate(-32.98 71.46) rotate(-45)"/><polygon class="a" points="46.08 86.25 44.34 95.16 42.59 104.08 51.5 102.3 60.41 100.52 53.24 93.38 46.08 86.25"/><path class="b" d="M198.39,64.92l-8.73,9.4V97.58H172.89V16.16h16.77V53.07L197,43l20.75-26.79h20.63L209.51,52.34l29.75,45.24h-20Z" transform="translate(0.18 -1.42)"/><path class="b" d="M279.58,97.58A17.63,17.63,0,0,1,278,92.16a19.58,19.58,0,0,1-15.27,6.54q-8.9,0-14.73-5.15a16.52,16.52,0,0,1-5.85-13q0-9.61,7.13-14.76t20.61-5.2h7.43V57.15a10,10,0,0,0-2.15-6.71c-1.43-1.68-3.7-2.51-6.79-2.51a9.63,9.63,0,0,0-6.4,2,6.66,6.66,0,0,0-2.32,5.37H243.46a16.25,16.25,0,0,1,3.24-9.73,21.48,21.48,0,0,1,9.17-7A33.53,33.53,0,0,1,269.18,36q11.18,0,17.75,5.62t6.57,15.8V83.6q.06,8.61,2.41,13v1ZM266.21,86.34a13.93,13.93,0,0,0,6.6-1.59,10.41,10.41,0,0,0,4.47-4.28V70.07h-6q-12.13,0-12.92,8.39l-.06,1a6.45,6.45,0,0,0,2.13,5A8.21,8.21,0,0,0,266.21,86.34Z" transform="translate(0.18 -1.42)"/><path class="b" d="M323,97.58H306.75V11.69H323Z" transform="translate(0.18 -1.42)"/><path class="b" d="M353.33,97.58H337.12V11.69h16.21Z" transform="translate(0.18 -1.42)"/><path class="b" d="M364.13,66.77a35.92,35.92,0,0,1,3.46-16,25.35,25.35,0,0,1,10-10.9A29.18,29.18,0,0,1,392.7,36q12.24,0,20,7.49t8.64,20.36l.11,4.13q0,13.94-7.77,22.34T392.81,98.7q-13.08,0-20.88-8.39t-7.8-22.81Zm16.16,1.15q0,8.63,3.24,13.19a11.65,11.65,0,0,0,18.45,0q3.3-4.5,3.3-14.42,0-8.46-3.3-13.1A10.72,10.72,0,0,0,392.7,49a10.55,10.55,0,0,0-9.17,4.62Q380.29,58.23,380.29,67.92Z" transform="translate(0.18 -1.42)"/><path class="b" d="M186.65,137.63A4.6,4.6,0,0,0,185,133.9a17.65,17.65,0,0,0-6.05-2.61,21.22,21.22,0,0,1-6.42-2.69,6.53,6.53,0,0,1-.2-10.69,11,11,0,0,1,6.84-2,11.27,11.27,0,0,1,5,1.09,8.26,8.26,0,0,1,3.46,3,8.05,8.05,0,0,1,1.22,4.34h-2.41a5.94,5.94,0,0,0-2-4.67,7.74,7.74,0,0,0-5.33-1.77,8.45,8.45,0,0,0-5.18,1.45,4.55,4.55,0,0,0-1.93,3.79,4.29,4.29,0,0,0,1.74,3.53,16.08,16.08,0,0,0,5.54,2.41,25.67,25.67,0,0,1,5.78,2.16,8.11,8.11,0,0,1,2.95,2.67,6.63,6.63,0,0,1,1,3.68,6.42,6.42,0,0,1-2.68,5.37,11.37,11.37,0,0,1-7,2,13.9,13.9,0,0,1-5.5-1.07,8.35,8.35,0,0,1-3.79-3,7.72,7.72,0,0,1-1.29-4.41h2.39a5.67,5.67,0,0,0,2.24,4.73,9.48,9.48,0,0,0,6,1.73,8.86,8.86,0,0,0,5.31-1.46A4.54,4.54,0,0,0,186.65,137.63Z" transform="translate(0.18 -1.42)"/><path class="b" d="M225.39,118.29h-9.7v26.3h-2.4v-26.3h-9.68v-2h21.78Z" transform="translate(0.18 -1.42)"/><path class="b" d="M261.43,116.27V135.6a9.85,9.85,0,0,1-1.27,5,8.26,8.26,0,0,1-3.51,3.26,11.4,11.4,0,0,1-5.2,1.14,10.24,10.24,0,0,1-7.17-2.44,8.92,8.92,0,0,1-2.79-6.76V116.27h2.37v19.16a7.36,7.36,0,0,0,2,5.55A8.72,8.72,0,0,0,257,141a7.33,7.33,0,0,0,2-5.52V116.27Z" transform="translate(0.18 -1.42)"/><path class="b" d="M280.05,144.59V116.27H288a12.37,12.37,0,0,1,6.24,1.58,11,11,0,0,1,4.31,4.55,14.3,14.3,0,0,1,1.55,6.73v2.6a14.36,14.36,0,0,1-1.54,6.73A11,11,0,0,1,294.2,143a12.73,12.73,0,0,1-6.41,1.59Zm2.39-26.3v24.28h5.37a9.24,9.24,0,0,0,7.18-3,11.49,11.49,0,0,0,2.7-8v-2.49a11.24,11.24,0,0,0-2.66-7.83,9.08,9.08,0,0,0-7-3Z" transform="translate(0.18 -1.42)"/><path class="b" d="M333.73,131H320.48v11.56h15.23v2H318.09V116.27h17.52v2H320.48V129h13.25Z" transform="translate(0.18 -1.42)"/><path class="b" d="M373.79,144.59H371.4l-16.29-24.24v24.24H352.7V116.27h2.41l16.31,24.26V116.27h2.37Z" transform="translate(0.18 -1.42)"/><path class="b" d="M411.59,118.29h-9.7v26.3h-2.4v-26.3h-9.68v-2h21.78Z" transform="translate(0.18 -1.42)"/></svg>